<svg width="1465" height="179" viewBox="0 0 1465 179" fill="none" xmlns="http://www.w3.org/2000/svg">
<path fill-rule="evenodd" clip-rule="evenodd" d="M0 89.5V179H41H82V150.5V122H129.5H177V150.5V179H218H259V89.5V0H218H177V26V52H129.5H82V26V0H41H0V89.5ZM412.273 0.740999C412.494 1.158 435.748 41.438 463.948 90.25L515.22 179H565.217C604.816 179 615.11 178.74 614.712 177.75C614.436 177.063 591.295 136.9 563.287 88.5L512.363 0.5L462.117 0.240999C434.481 0.0979992 412.052 0.322999 412.273 0.740999ZM601.084 13.75C605.466 21.313 627.594 59.563 650.259 98.75C672.923 137.938 691.765 170 692.129 170C692.494 170 703.459 151.533 716.498 128.961L740.205 87.923L732.286 74.211C727.932 66.67 716.523 46.897 706.934 30.271L689.5 0.0429993L641.309 0.0209999L593.119 0L601.084 13.75ZM748.646 89.25L697.02 178.5L746.715 178.759C785.662 178.963 796.658 178.747 797.56 177.759C798.891 176.302 900 1.408 900 0.563C900 0.253 877.561 0 850.136 0H800.272L748.646 89.25ZM983 0.584999C983 1.451 1084.08 176.286 1085.43 177.759C1086.34 178.746 1097.34 178.963 1136.26 178.759L1185.93 178.5L1134.33 89.25L1082.73 0H1032.86C1005.44 0 983 0.262999 983 0.584999ZM1234 89.5V179H1349.5H1465V144V109H1391H1317V54.5V0H1275.5H1234V89.5ZM357.45 92.562C330.527 139.087 308.35 177.568 308.167 178.076C307.966 178.633 326.879 179 355.771 179H403.709L429.015 135.25C442.934 111.188 454.318 91.05 454.314 90.5C454.305 89.35 409.312 11.149 407.558 9.235C406.658 8.253 395.492 26.821 357.45 92.562ZM973.782 13.654C957.469 41.489 879.976 175.889 879.455 177.25C878.824 178.902 881.471 178.999 926.643 178.974L974.5 178.949L999.853 134.964C1013.8 110.772 1024.97 90.355 1024.67 89.592C1023.96 87.743 978.957 9.737 977.975 8.654C977.553 8.189 975.666 10.439 973.782 13.654Z" fill="white"/>
</svg>
